<svg xmlns="http://www.w3.org/2000/svg" width="20" height="20" viewBox="0 0 512 512" version="1.1"><path d="M 225 1.514 C 116.007 14.979, 26.946 97.022, 4.936 204.237 C -0 228.284, -1.440 262.012, 1.446 286 C 15.629 403.892, 108.108 496.371, 226 510.554 C 240.764 512.330, 271.236 512.330, 286 510.554 C 387.632 498.327, 471.885 427.572, 501.459 329.612 C 505.735 315.449, 509.684 296.228, 510.618 285.032 C 510.989 280.580, 511.677 276.700, 512.146 276.410 C 512.616 276.119, 513 266.432, 513 254.882 C 513 243.332, 512.614 234.121, 512.141 234.413 C 511.669 234.704, 510.981 231.327, 510.613 226.908 C 509.684 215.767, 505.727 196.524, 501.459 182.388 C 471.885 84.428, 387.632 13.673, 286 1.446 C 271.761 -0.267, 239.123 -0.231, 225 1.514 M 361.007 93.083 C 361.018 95.429, 355.805 141.475, 355.489 141.819 C 355.328 141.994, 344.239 143.370, 330.848 144.877 C 317.457 146.383, 307.400 147.894, 308.500 148.234 C 309.600 148.575, 320.400 149.853, 332.500 151.076 C 344.600 152.298, 354.813 153.568, 355.196 153.899 C 355.747 154.375, 361 198.170, 361 202.290 C 361 202.864, 361.194 203.139, 361.432 202.902 C 361.669 202.664, 363.063 191.677, 364.530 178.485 C 365.996 165.293, 367.490 154.239, 367.848 153.921 C 368.207 153.602, 378.400 152.329, 390.500 151.092 C 402.600 149.855, 413.400 148.567, 414.500 148.230 C 415.600 147.892, 405.543 146.383, 392.152 144.877 C 378.761 143.370, 367.671 141.994, 367.509 141.819 C 367.347 141.643, 365.993 130.475, 364.500 117 C 363.007 103.525, 361.609 92.313, 361.393 92.083 C 361.177 91.854, 361.003 92.304, 361.007 93.083 M 238 94.639 C 236.625 94.841, 232.125 95.493, 228 96.088 C 178.055 103.291, 130.125 139.489, 108.468 186.363 C 87.951 230.770, 88.164 280.816, 109.057 324.500 C 135.671 380.145, 192.825 416, 254.909 416 C 264.913 416, 284.057 413.533, 294.272 410.928 C 350.576 396.569, 395.803 351.011, 410.353 294 C 412.759 284.570, 415.619 264.356, 414.866 262.097 C 414.650 261.449, 412.844 263.749, 410.852 267.209 C 381.686 317.890, 320.124 341.053, 264.165 322.402 C 208.300 303.782, 172.672 245.729, 181.406 187.552 C 185.323 161.462, 197.084 137.687, 215.266 119.107 C 223.328 110.867, 235.900 101.098, 243.202 97.398 C 245.841 96.060, 248 94.749, 248 94.483 C 248 93.957, 242.008 94.051, 238 94.639 M 118.982 99.519 L 115.571 103.038 119.286 106.752 L 123 110.467 126.714 106.752 L 130.429 103.038 127.018 99.519 C 125.142 97.583, 123.334 96, 123 96 C 122.666 96, 120.858 97.583, 118.982 99.519 M 77.196 126.297 L 74.001 129.595 77.798 133.303 L 81.596 137.012 84.994 133.506 L 88.392 130 85 126.500 C 83.134 124.575, 81.334 123, 81 123 C 80.666 123, 78.954 124.484, 77.196 126.297 M 420.196 195.297 L 417.001 198.595 420.798 202.303 L 424.596 206.012 427.994 202.506 L 431.392 199 428 195.500 C 426.134 193.575, 424.334 192, 424 192 C 423.666 192, 421.954 193.484, 420.196 195.297 M 0.425 256 C 0.425 267.825, 0.569 272.663, 0.746 266.750 C 0.923 260.837, 0.923 251.162, 0.746 245.250 C 0.569 239.338, 0.425 244.175, 0.425 256 M 244.700 249.795 L 240.995 253.589 244.796 257.301 L 248.596 261.012 251.798 257.708 C 253.559 255.891, 255 253.952, 255 253.399 C 255 252.845, 253.516 250.954, 251.703 249.196 L 248.405 246.001 244.700 249.795 M 451.196 286.297 L 448.001 289.595 451.798 293.303 L 455.596 297.012 458.798 293.708 C 460.559 291.891, 462 289.976, 462 289.452 C 462 288.617, 455.688 283, 454.750 283 C 454.553 283, 452.954 284.484, 451.196 286.297 M 115.125 377.223 C 114.489 382.876, 113.686 390.536, 113.340 394.247 C 112.994 397.958, 112.214 401.377, 111.606 401.843 C 110.998 402.310, 103.075 403.480, 94 404.442 C 84.925 405.405, 77.372 406.315, 77.217 406.463 C 76.863 406.800, 83.052 407.563, 98.500 409.085 C 105.100 409.736, 111.003 410.770, 111.618 411.384 C 112.233 411.998, 113.495 419.912, 114.423 428.971 C 115.351 438.031, 116.247 445.580, 116.415 445.748 C 116.720 446.053, 118.477 431.438, 119.660 418.753 C 120.006 415.042, 120.786 411.623, 121.394 411.157 C 122.002 410.690, 129.925 409.520, 139 408.558 C 148.075 407.595, 155.623 406.690, 155.773 406.547 C 156.090 406.246, 138.844 404.227, 128.232 403.323 C 119.711 402.597, 120.745 404.740, 118.431 383 C 117.524 374.475, 116.669 367.376, 116.531 367.223 C 116.393 367.071, 115.760 371.571, 115.125 377.223 M 347.703 422.792 L 343.995 426.589 347.792 430.297 L 351.589 434.005 355.297 430.208 L 359.005 426.411 355.208 422.703 L 351.411 418.995 347.703 422.792" stroke="none" fill="#27536b" fill-rule="evenodd"/><path d="M 359.076 116 C 357.770 128.375, 356.365 139.422, 355.952 140.549 C 355.264 142.429, 353.325 142.797, 332.474 145.003 C 319.831 146.340, 310.578 147.720, 311.623 148.113 C 312.655 148.501, 322.950 149.804, 334.500 151.007 C 346.050 152.211, 355.643 153.333, 355.819 153.500 C 355.994 153.667, 357.360 164.761, 358.855 178.152 L 361.572 202.500 364.240 178.129 C 365.708 164.725, 367.042 153.632, 367.204 153.477 C 367.367 153.322, 376.950 152.211, 388.500 151.007 C 400.050 149.804, 410.338 148.504, 411.362 148.120 C 412.387 147.735, 403.162 146.365, 390.862 145.074 C 378.563 143.784, 368.142 142.409, 367.705 142.019 C 367.268 141.630, 365.809 131.453, 364.462 119.405 C 363.116 107.357, 361.887 96.600, 361.731 95.500 C 361.576 94.400, 360.381 103.625, 359.076 116 M 119 99.500 L 115.571 103.038 119.071 106.538 L 122.571 110.038 126 106.500 L 129.429 102.962 125.929 99.462 L 122.429 95.962 119 99.500 M 78.241 125.810 C 76.449 127.289, 74.986 128.978, 74.991 129.563 C 74.996 130.148, 76.361 131.929, 78.024 133.523 L 81.047 136.419 84.542 132.924 L 88.038 129.429 84.769 126.274 L 81.500 123.120 78.241 125.810 M 420.193 195.301 L 416.994 198.602 420.497 201.997 L 424 205.392 427.503 201.997 L 431.006 198.602 427.807 195.301 C 426.047 193.485, 424.334 192, 424 192 C 423.666 192, 421.953 193.485, 420.193 195.301 M 244.687 249.805 C 241.239 253.404, 241.305 254.311, 245.240 257.391 L 248.480 259.927 251.743 256.764 L 255.006 253.602 251.807 250.301 C 250.047 248.485, 248.330 247, 247.991 247 C 247.652 247, 246.165 248.262, 244.687 249.805 M 451.193 286.301 L 447.994 289.602 451.497 292.997 L 455 296.392 458.503 292.997 L 462.006 289.602 458.807 286.301 C 457.047 284.485, 455.334 283, 455 283 C 454.666 283, 452.953 284.485, 451.193 286.301 M 114.644 385 C 113.646 394.075, 112.525 401.821, 112.152 402.213 C 111.779 402.605, 104.055 403.719, 94.987 404.688 L 78.500 406.450 89.500 407.714 C 95.550 408.409, 103.200 409.321, 106.500 409.739 L 112.500 410.500 113.261 416.500 C 113.679 419.800, 114.590 427.450, 115.284 433.500 L 116.546 444.500 118.358 428 C 119.355 418.925, 120.470 411.201, 120.835 410.835 C 121.201 410.470, 128.925 409.358, 138 408.366 L 154.500 406.561 139.500 404.837 C 131.250 403.888, 123.526 403.087, 122.335 403.056 C 120.383 403.006, 120.103 402.283, 119.486 395.695 C 119.110 391.677, 118.274 383.914, 117.630 378.445 L 116.458 368.500 114.644 385 M 348.023 423.476 L 344.617 426.991 347.495 429.995 C 351.084 433.741, 351.918 433.739, 355.523 429.976 L 358.419 426.953 354.924 423.458 L 351.429 419.962 348.023 423.476" stroke="none" fill="#ffffff" fill-rule="evenodd"/><path d="M 238 94.639 C 236.625 94.841, 232.125 95.493, 228 96.088 C 178.055 103.291, 130.125 139.489, 108.468 186.363 C 87.951 230.770, 88.164 280.816, 109.057 324.500 C 135.671 380.145, 192.825 416, 254.909 416 C 264.913 416, 284.057 413.533, 294.272 410.928 C 350.576 396.569, 395.803 351.011, 410.353 294 C 412.759 284.570, 415.619 264.356, 414.866 262.097 C 414.650 261.449, 412.844 263.749, 410.852 267.209 C 381.686 317.890, 320.124 341.053, 264.165 322.402 C 208.300 303.782, 172.672 245.729, 181.406 187.552 C 185.323 161.462, 197.084 137.687, 215.266 119.107 C 223.328 110.867, 235.900 101.098, 243.202 97.398 C 245.841 96.060, 248 94.749, 248 94.483 C 248 93.957, 242.008 94.051, 238 94.639 M 125.965 99.250 L 129.392 103 125.965 106.750 L 122.538 110.500 126.503 106.750 L 130.467 103 126.503 99.250 L 122.538 95.500 125.965 99.250 M 83.946 133.750 L 80.500 137.500 84.250 134.054 C 86.313 132.158, 88 130.471, 88 130.304 C 88 129.540, 87.154 130.260, 83.946 133.750 M 308 148 C 308.825 148.533, 310.175 148.969, 311 148.969 C 312.333 148.969, 312.333 148.862, 311 148 C 310.175 147.467, 308.825 147.031, 308 147.031 C 306.667 147.031, 306.667 147.138, 308 148 M 412 148 C 410.667 148.862, 410.667 148.969, 412 148.969 C 412.825 148.969, 414.175 148.533, 415 148 C 416.333 147.138, 416.333 147.031, 415 147.031 C 414.175 147.031, 412.825 147.467, 412 148 M 426.946 202.750 L 423.500 206.500 427.250 203.054 C 429.313 201.158, 431 199.471, 431 199.304 C 431 198.540, 430.154 199.260, 426.946 202.750 M 251 249.500 C 252.866 251.425, 254.617 253, 254.892 253 C 255.167 253, 253.866 251.425, 252 249.500 C 250.134 247.575, 248.383 246, 248.108 246 C 247.833 246, 249.134 247.575, 251 249.500 M 251.518 256.982 C 249.331 259.264, 248.349 259.705, 247.330 258.859 C 246.599 258.252, 246 257.980, 246 258.255 C 246 258.530, 246.596 259.250, 247.326 259.855 C 248.341 260.698, 249.439 260.143, 252.022 257.478 C 253.876 255.565, 255.163 254, 254.883 254 C 254.603 254, 253.089 255.342, 251.518 256.982 M 457.946 293.750 L 454.500 297.500 458.250 294.054 C 460.313 292.158, 462 290.471, 462 290.304 C 462 289.540, 461.154 290.260, 457.946 293.750 M 347.453 423.250 L 343.500 427.500 347.529 423.763 L 351.559 420.025 355.514 423.763 L 359.469 427.500 355.531 423.250 C 353.366 420.913, 351.552 419, 351.500 419 C 351.448 419, 349.627 420.913, 347.453 423.250" stroke="none" fill="#fad583" fill-rule="evenodd"/><path d="" stroke="none" fill="#24546c" fill-rule="evenodd"/></svg>