<svg xmlns="http://www.w3.org/2000/svg" width="20" height="20" viewBox="0 0 512 512" version="1.1"><path d="M 41 317.500 L 41 435 77.250 434.986 L 113.500 434.971 136.371 355.580 C 148.949 311.915, 159.448 275.106, 159.701 273.781 C 160.072 271.844, 159.218 270.621, 155.331 267.522 C 149.023 262.493, 148 261.156, 148 257.944 C 148 253.690, 151.531 250, 155.602 250 C 158.681 250, 168.778 257.787, 247.780 321.090 C 296.576 360.190, 337.963 393.501, 339.750 395.115 C 344.909 399.772, 344.011 406.755, 337.984 408.856 C 334.193 410.177, 332.034 409.355, 325.531 404.111 L 320.561 400.104 315.531 402.947 C 312.764 404.511, 298.800 412.185, 284.500 420.001 C 270.200 427.817, 258.313 434.389, 258.083 434.606 C 257.854 434.823, 298.017 435, 347.333 435 L 437 435 437 317.500 L 437 200 239 200 L 41 200 41 317.500 M 216 205.689 C 211.903 207.252, 211 209.195, 211 216.445 C 211 224.804, 208.888 233.717, 205.449 239.870 C 202.161 245.753, 202.225 250.245, 205.635 252.927 C 209.493 255.962, 212.738 255.557, 216.497 251.572 C 225.155 242.391, 230.276 213.750, 224.305 207.896 C 222.269 205.899, 218.248 204.831, 216 205.689 M 312.349 226.765 C 311.716 227.169, 304.404 235.993, 296.099 246.374 C 283.570 262.035, 281 265.804, 281 268.513 C 281 272.288, 283.608 275.909, 286.500 276.150 C 292.217 276.627, 292.863 276.052, 308.453 256.638 C 322.049 239.705, 324 236.825, 324 233.677 C 324 231.262, 323.280 229.407, 321.811 228.039 C 319.640 226.016, 314.588 225.336, 312.349 226.765 M 261.234 230.329 C 259.987 231.022, 257.269 234.493, 255.193 238.044 C 249.292 248.137, 243.702 256.032, 235.017 266.541 C 226.073 277.362, 225.176 280.267, 229.455 284.545 C 233.092 288.183, 237.473 287.839, 241.469 283.601 C 254.486 269.799, 273 242.304, 273 236.774 C 273 234.311, 267.723 228.989, 265.327 229.035 C 264.322 229.055, 262.480 229.637, 261.234 230.329 M 308.513 289.250 C 293.745 304.135, 282 319.082, 282 322.992 C 282 328.812, 287.783 332.555, 293.427 330.390 C 294.302 330.054, 298.711 324.991, 303.225 319.140 C 307.739 313.288, 316.060 303.897, 321.716 298.270 C 330.300 289.731, 332 287.534, 332 284.975 C 332 280.828, 328.102 277, 323.879 277 C 321.099 277, 319.031 278.648, 308.513 289.250 M 378.375 303.091 C 370.005 304.490, 356.673 309.802, 349.348 314.656 C 341.043 320.160, 328.641 332.135, 321.939 341.122 C 315.998 349.088, 315.347 353.555, 319.635 356.927 C 324.960 361.116, 327.577 359.798, 336.619 348.379 C 345.069 337.706, 354.918 329.265, 364.357 324.609 C 371.734 320.969, 382.102 318.041, 387.703 318.015 C 396.538 317.974, 401.128 310.037, 395.545 304.455 C 392.858 301.767, 388.407 301.413, 378.375 303.091" stroke="none" fill="#eff6ff" fill-rule="evenodd"/><path d="M 245 170.545 C 245 171.395, 243.895 173.195, 242.545 174.545 L 240.091 177 140.545 177 L 41 177 41 188.500 L 41 200 239 200 L 437 200 437 317.500 L 437 435 454 435 L 471 435 471 306 L 471 177 370.950 177 C 262.157 177, 266.020 177.198, 264.598 171.535 C 263.973 169.045, 263.795 169, 254.481 169 C 246.596 169, 245 169.260, 245 170.545" stroke="none" fill="#d9eeff" fill-rule="evenodd"/><path d="M 41 151 L 41 161 138.851 161 C 205.481 161, 237.676 161.340, 239.756 162.065 C 241.634 162.719, 243.280 164.261, 244.027 166.065 L 245.243 169 255.121 169 C 264.057 169, 265 168.824, 265 167.155 C 265 166.140, 265.947 164.453, 267.105 163.405 C 269.141 161.562, 272.489 161.491, 370.105 161.236 L 471 160.972 471 150.986 L 471 141 256 141 L 41 141 41 151 M 226.286 219.500 C 226.294 222.250, 226.488 223.256, 226.718 221.736 C 226.947 220.216, 226.941 217.966, 226.704 216.736 C 226.467 215.506, 226.279 216.750, 226.286 219.500" stroke="none" fill="#9fd4fe" fill-rule="evenodd"/><path d="M 162.040 323.361 L 158.771 334.813 195.500 380.656 C 215.701 405.870, 232.784 427.090, 233.462 427.812 C 234.470 428.884, 236.277 428.257, 243.343 424.385 C 250.964 420.209, 251.829 419.460, 250.630 418.074 C 240.345 406.183, 213 370.213, 213 368.575 C 213 367.403, 213.667 365.493, 214.482 364.329 C 215.872 362.345, 215.588 361.742, 209.928 354.652 C 204.320 347.626, 203.713 347.159, 201.354 348.055 C 199.578 348.731, 198.017 348.640, 196.158 347.751 C 194.696 347.053, 187.583 339.129, 180.351 330.142 C 173.119 321.154, 166.775 313.375, 166.255 312.855 C 165.660 312.260, 164.096 316.157, 162.040 323.361 M 133.115 423.548 L 129.883 435.095 143.661 452.163 C 151.239 461.551, 157.919 469.416, 158.506 469.641 C 159.789 470.133, 175 462.019, 175 460.843 C 175 460.094, 137.186 412, 136.598 412 C 136.460 412, 134.892 417.196, 133.115 423.548" stroke="none" fill="#ccf49f" fill-rule="evenodd"/><path d="M 41 93 L 41 126 256 126 L 471 126 471 92.989 L 471 59.978 428.750 60.239 L 386.500 60.500 386.541 68.036 C 386.610 80.774, 392.177 88, 403.524 90.080 C 410.928 91.437, 413 93.169, 413 98 C 413 104.200, 409.351 106.223, 400.634 104.856 C 389.116 103.050, 379.428 95.599, 374.470 84.733 C 372.452 80.313, 371.706 76.751, 371.272 69.483 L 370.706 60 329.754 60 L 288.801 60 289.151 68.825 C 289.452 76.448, 289.875 78.217, 292.251 81.806 C 295.393 86.550, 300.395 89.430, 307.222 90.426 C 310.593 90.917, 312.525 91.852, 313.972 93.692 C 316.621 97.059, 316.531 99.271, 313.610 102.667 C 311.517 105.101, 310.594 105.417, 306.153 105.224 C 298.076 104.873, 290.274 101.406, 284.482 95.596 C 276.973 88.064, 274.714 82.634, 274.050 70.520 L 273.500 60.500 232.250 60.239 L 191 59.978 191.022 67.239 C 191.061 80.259, 196.755 87.867, 208.133 90.106 C 216.757 91.803, 219.689 95.436, 217.350 101.529 C 214.634 108.607, 196.405 105.075, 186.633 95.578 C 179.671 88.812, 176.777 81.683, 176.210 69.910 L 175.732 59.978 134.616 60.239 L 93.500 60.500 93.541 68.036 C 93.610 80.872, 99.226 88.083, 110.733 90.110 C 117.649 91.328, 120.333 93.523, 120.333 97.960 C 120.333 103.964, 116.183 106.196, 107.539 104.841 C 97.031 103.193, 87.057 95.913, 82.162 86.318 C 79.792 81.673, 78 72.628, 78 65.316 L 78 60 59.500 60 L 41 60 41 93 M 90.326 176.750 C 117.730 176.898, 162.280 176.898, 189.326 176.750 C 216.372 176.602, 193.950 176.481, 139.500 176.481 C 85.050 176.481, 62.922 176.602, 90.326 176.750 M 321.826 176.750 C 349.506 176.898, 394.506 176.898, 421.826 176.750 C 449.147 176.602, 426.500 176.481, 371.500 176.481 C 316.500 176.481, 294.147 176.602, 321.826 176.750 M 173.081 284.286 C 172.559 285.661, 171.835 288.365, 171.473 290.295 C 170.839 293.670, 171.480 294.634, 188.407 315.772 C 206.344 338.170, 207.535 340.263, 205.020 344.962 C 204.225 346.448, 205.175 348.214, 210.055 354.328 C 215.776 361.495, 216.234 361.836, 219.423 361.319 C 221.267 361.020, 223.451 361.163, 224.277 361.637 C 225.103 362.112, 234.652 373.525, 245.498 387 C 256.343 400.475, 265.539 411.624, 265.933 411.775 C 266.327 411.926, 274.716 407.610, 284.575 402.184 C 294.434 396.758, 303.748 391.666, 305.274 390.868 L 308.048 389.419 294.274 378.367 C 221.728 320.159, 181.803 288.105, 178.266 285.228 L 174.032 281.785 173.081 284.286 M 344.437 338.250 L 341.500 341.500 344.750 338.563 C 346.538 336.948, 348 335.485, 348 335.313 C 348 334.540, 347.175 335.221, 344.437 338.250 M 152.656 354.632 C 147.182 373.110, 141.964 392.516, 142.199 393.527 C 142.364 394.240, 153.203 408.139, 166.284 424.413 C 189.244 452.977, 190.145 453.954, 192.284 452.629 C 193.503 451.874, 200.451 448.026, 207.724 444.079 L 220.948 436.903 188.845 396.701 C 171.187 374.591, 155.946 355.660, 154.975 354.632 C 153.251 352.809, 153.196 352.809, 152.656 354.632 M 120.503 466.202 C 112.123 495.522, 112.029 495.926, 113.756 495.263 C 115.014 494.781, 143.898 479.211, 144.709 478.579 C 144.903 478.427, 126.778 455.460, 125.076 453.702 C 124.652 453.263, 122.594 458.888, 120.503 466.202" stroke="none" fill="#fe8d94" fill-rule="evenodd"/><path d="M 100.357 2.082 C 86.491 7.415, 78 20.935, 78 37.682 L 78 45 56.148 45 C 35.046 45, 34.179 45.078, 30.898 47.285 C 28.956 48.590, 26.988 51.055, 26.306 53.035 C 25.399 55.670, 25.100 102.354, 25.058 248 C 25.006 428.405, 25.104 439.699, 26.752 442.929 C 27.713 444.815, 29.770 447.290, 31.321 448.429 C 34.024 450.413, 35.708 450.521, 71.412 451 L 108.681 451.500 102.832 471.500 C 97.670 489.151, 97.016 492.364, 97.266 498.854 C 97.531 505.725, 97.762 506.398, 100.790 509.104 C 104.554 512.467, 110.040 512.956, 116.892 510.538 C 119.171 509.734, 144.765 496.121, 173.768 480.288 L 226.500 451.500 352.177 451 C 477.326 450.502, 477.866 450.491, 480.677 448.429 C 482.230 447.290, 484.287 444.815, 485.248 442.929 C 486.896 439.699, 486.994 428.405, 486.942 248 C 486.900 102.354, 486.601 55.670, 485.694 53.035 C 485.012 51.055, 483.044 48.590, 481.102 47.285 C 477.872 45.113, 476.803 45, 459.468 45 L 441.233 45 440.806 35.250 C 440.268 22.937, 437.439 16.430, 429.452 9.130 C 415.874 -3.280, 396.126 -3.280, 382.548 9.130 C 374.647 16.351, 371.815 22.875, 371.210 35.250 L 370.733 45 356.980 45 L 343.227 45 342.829 34.750 C 342.466 25.392, 342.135 23.949, 339.032 18.166 C 335.474 11.538, 330.569 6.858, 323 2.871 C 319.135 0.835, 317.089 0.500, 308.500 0.500 C 296.464 0.500, 291.393 2.517, 283.404 10.482 C 276.848 17.017, 273.968 24.326, 273.250 36.250 L 272.723 45 259.498 45 L 246.273 45 245.784 35.663 C 245.409 28.501, 244.700 25.024, 242.737 20.738 C 239.322 13.278, 233.026 6.652, 226.142 3.270 C 221.118 0.804, 219.404 0.500, 210.500 0.501 C 201.495 0.501, 199.974 0.778, 195.216 3.285 C 188.162 7, 182.371 12.974, 179.155 19.852 C 176.995 24.470, 176.450 27.278, 176.163 35.250 L 175.813 45 162.023 45 L 148.233 45 147.840 35.217 C 147.512 27.054, 146.988 24.497, 144.679 19.777 C 141.113 12.488, 132.777 4.809, 125.459 2.071 C 118.186 -0.651, 107.450 -0.646, 100.357 2.082 M 108 16.144 C 98.727 18.861, 94.057 26.080, 94.022 37.750 L 94 45 113.099 45 L 132.199 45 131.849 36.091 C 131.529 27.911, 131.249 26.868, 128.436 23.341 C 123.390 17.016, 115.049 14.078, 108 16.144 M 208.500 15.460 C 207.950 15.661, 206.271 16.096, 204.768 16.427 C 201.404 17.168, 195.408 22.310, 193.417 26.161 C 192.602 27.737, 191.658 32.620, 191.319 37.013 L 190.704 45 210.454 45 L 230.205 45 229.853 36.676 C 229.553 29.611, 229.084 27.722, 226.749 24.195 C 225.236 21.910, 222.290 19.168, 220.202 18.103 C 216.370 16.148, 210.342 14.786, 208.500 15.460 M 303.994 15.912 C 298.633 17.590, 294.883 20.220, 292.312 24.104 C 290.081 27.476, 289.560 29.559, 289.191 36.576 L 288.749 45 308.517 45 L 328.286 45 327.748 37.154 C 327.452 32.838, 326.528 28.001, 325.694 26.404 C 324.024 23.203, 319.608 18.802, 316.500 17.238 C 313.504 15.731, 306.832 15.024, 303.994 15.912 M 401 16.175 C 391.702 18.817, 387 25.965, 387 37.460 L 387 45 406 45 L 425 45 425 37.460 C 425 25.723, 420.284 18.776, 410.500 16.104 C 405.890 14.845, 405.676 14.846, 401 16.175 M 41 93 L 41 126 256 126 L 471 126 471 92.989 L 471 59.978 428.750 60.239 L 386.500 60.500 386.541 68.036 C 386.610 80.774, 392.177 88, 403.524 90.080 C 410.928 91.437, 413 93.169, 413 98 C 413 104.200, 409.351 106.223, 400.634 104.856 C 389.116 103.050, 379.428 95.599, 374.470 84.733 C 372.452 80.313, 371.706 76.751, 371.272 69.483 L 370.706 60 329.754 60 L 288.801 60 289.151 68.825 C 289.452 76.448, 289.875 78.217, 292.251 81.806 C 295.393 86.550, 300.395 89.430, 307.222 90.426 C 310.593 90.917, 312.525 91.852, 313.972 93.692 C 316.621 97.059, 316.531 99.271, 313.610 102.667 C 311.517 105.101, 310.594 105.417, 306.153 105.224 C 298.076 104.873, 290.274 101.406, 284.482 95.596 C 276.973 88.064, 274.714 82.634, 274.050 70.520 L 273.500 60.500 232.250 60.239 L 191 59.978 191.022 67.239 C 191.061 80.259, 196.755 87.867, 208.133 90.106 C 216.757 91.803, 219.689 95.436, 217.350 101.529 C 214.634 108.607, 196.405 105.075, 186.633 95.578 C 179.671 88.812, 176.777 81.683, 176.210 69.910 L 175.732 59.978 134.616 60.239 L 93.500 60.500 93.541 68.036 C 93.610 80.872, 99.226 88.083, 110.733 90.110 C 117.649 91.328, 120.333 93.523, 120.333 97.960 C 120.333 103.964, 116.183 106.196, 107.539 104.841 C 97.031 103.193, 87.057 95.913, 82.162 86.318 C 79.792 81.673, 78 72.628, 78 65.316 L 78 60 59.500 60 L 41 60 41 93 M 41 150.986 L 41 160.971 140.587 161.236 L 240.174 161.500 242.587 164.306 C 245.543 167.743, 245.626 169.935, 242.927 173.365 L 240.855 176 140.927 176 L 41 176 41 305.500 L 41 435 77.422 435 L 113.845 435 114.878 431.750 C 115.446 429.962, 126.097 393.191, 138.548 350.035 L 161.185 271.570 157.343 268.535 C 149.866 262.629, 148.858 261.243, 149.190 257.335 C 149.571 252.861, 153.380 249.553, 157.073 250.487 C 158.408 250.824, 167.825 257.756, 178 265.890 C 279.221 346.812, 340.709 396.558, 341.715 398.344 C 343.562 401.623, 343.245 403.846, 340.545 406.545 C 337.023 410.068, 334.003 409.605, 327.212 404.500 C 323.919 402.025, 320.900 400, 320.503 400 C 319.767 400, 264.980 429.744, 259.500 433.119 C 256.571 434.923, 259.035 434.967, 363.750 434.983 L 471 435 471 305.500 L 471 176 370.223 176 C 257.564 176, 265 176.488, 265 169.098 C 265 166.517, 265.671 164.703, 267.105 163.405 C 269.141 161.562, 272.489 161.491, 370.105 161.236 L 471 160.972 471 150.986 L 471 141 256 141 L 41 141 41 150.986 M 213.861 207.911 C 211.734 209.633, 211.443 210.859, 210.927 220.272 C 210.415 229.605, 209.961 231.549, 206.677 238.465 C 204.655 242.723, 203 246.775, 203 247.469 C 203 248.163, 203.933 249.916, 205.073 251.365 C 207.759 254.781, 212.769 254.962, 215.715 251.750 C 221.624 245.309, 225.961 231.352, 225.985 218.705 C 225.998 211.751, 225.735 210.644, 223.545 208.455 C 220.601 205.510, 217.071 205.312, 213.861 207.911 M 313.341 227.285 C 309.589 229.397, 281 265.979, 281 268.669 C 281 273.439, 286.837 277.151, 291.515 275.356 C 293.347 274.653, 321.617 239.873, 323.265 236.295 C 324.632 233.327, 322.635 228.611, 319.385 227.130 C 316.361 225.752, 316.053 225.760, 313.341 227.285 M 260.951 230.968 C 260.099 231.467, 257.048 235.850, 254.172 240.709 C 248.690 249.971, 240.863 260.727, 232.583 270.376 C 229.058 274.484, 227.667 276.956, 227.667 279.108 C 227.667 283.098, 230.998 286.333, 235.106 286.333 C 237.738 286.333, 239.199 285.350, 243.148 280.917 C 255.986 266.504, 272 242.110, 272 236.965 C 272 231.952, 265.394 228.366, 260.951 230.968 M 314.943 283.472 C 303.997 293.239, 285.317 315.317, 283.191 321 C 282.001 324.179, 283.210 327.437, 286.340 329.487 C 290.694 332.340, 293.293 330.633, 302.845 318.646 C 307.730 312.516, 316.033 303.225, 321.297 298 C 331.917 287.457, 333.233 284.837, 329.984 280.707 C 326.415 276.170, 322.274 276.931, 314.943 283.472 M 173.081 284.286 C 172.559 285.661, 171.835 288.365, 171.473 290.295 C 170.839 293.670, 171.480 294.634, 188.407 315.772 C 202.770 333.708, 206 338.315, 206 340.870 C 206 346.406, 200.165 349.766, 195.184 347.098 C 194.258 346.602, 187.211 338.303, 179.524 328.657 C 171.837 319.011, 165.463 311.204, 165.358 311.309 C 165.253 311.414, 163.623 316.703, 161.734 323.062 L 158.301 334.625 195.900 381.760 C 216.580 407.685, 234 428.919, 234.612 428.948 C 235.755 429.002, 249.869 421.512, 251.302 420.091 C 251.743 419.654, 243.531 408.558, 233.052 395.434 C 217.022 375.357, 214 371.051, 214 368.286 C 214 366.333, 214.811 364.189, 216 363 C 217.992 361.008, 222.476 360.367, 224.633 361.765 C 225.257 362.169, 234.643 373.525, 245.492 387 C 256.341 400.475, 265.539 411.624, 265.933 411.775 C 266.327 411.926, 274.716 407.610, 284.575 402.184 C 294.434 396.758, 303.748 391.666, 305.274 390.868 L 308.048 389.419 294.274 378.367 C 221.728 320.159, 181.803 288.105, 178.266 285.228 L 174.032 281.785 173.081 284.286 M 383.061 303.099 C 364.908 305.415, 348.369 313.742, 334.625 327.486 C 327.527 334.585, 319.734 344.295, 317.892 348.337 C 316.347 351.730, 318.334 356.795, 321.525 357.596 C 326.260 358.784, 328.365 357.543, 334.413 350 C 350.895 329.441, 366.414 319.825, 386.861 317.501 C 394.342 316.651, 397 314.593, 397 309.655 C 397 303.654, 393.097 301.818, 383.061 303.099 M 152.656 354.632 C 147.182 373.110, 141.964 392.516, 142.199 393.527 C 142.364 394.240, 153.203 408.139, 166.284 424.413 C 189.244 452.977, 190.145 453.954, 192.284 452.629 C 193.503 451.874, 200.451 448.026, 207.724 444.079 L 220.948 436.903 188.845 396.701 C 171.187 374.591, 155.946 355.660, 154.975 354.632 C 153.251 352.809, 153.196 352.809, 152.656 354.632 M 133.988 419.250 C 132.835 423.238, 131.466 427.805, 130.946 429.399 C 130.426 430.994, 130 433.084, 130 434.045 C 130 435.347, 152.478 464.507, 157.952 470.307 C 158.876 471.286, 176.163 461.988, 175.745 460.736 C 175.241 459.222, 137.540 412.100, 136.792 412.049 C 136.403 412.022, 135.141 415.262, 133.988 419.250 M 120.503 466.202 C 112.123 495.522, 112.029 495.926, 113.756 495.263 C 115.014 494.781, 143.898 479.211, 144.709 478.579 C 144.903 478.427, 126.778 455.460, 125.076 453.702 C 124.652 453.263, 122.594 458.888, 120.503 466.202" stroke="none" fill="#060606" fill-rule="evenodd"/><path d="" stroke="none" fill="#e5d8e0" fill-rule="evenodd"/></svg>