<svg xmlns="http://www.w3.org/2000/svg" width="20" height="20" viewBox="0 0 512 512" version="1.1"><path d="M 242.500 110.588 C 203.443 116.201, 178.760 128.066, 153.413 153.413 C 131.057 175.769, 118.058 200.188, 112.375 230.500 C 109.633 245.123, 109.875 269.807, 112.899 283.990 C 116.043 298.734, 119.544 308.784, 125.956 321.468 L 131.500 332.437 141.655 335.630 C 158.299 340.865, 169.160 342.401, 189.500 342.396 C 204.051 342.393, 209.651 341.966, 218.728 340.170 C 279.535 328.137, 326.415 282.424, 340.004 221.914 C 345.509 197.398, 344.604 170.796, 337.405 145.561 C 333.512 131.910, 333.500 131.897, 320.770 125.620 C 299.942 115.352, 283.241 111.214, 260 110.563 C 252.025 110.340, 244.150 110.351, 242.500 110.588" stroke="none" fill="#ffd880" fill-rule="evenodd"/><path d="M 250.174 2.314 C 248.029 4.598, 248 5.090, 248 38.860 L 248 73.091 250.455 75.545 C 253.702 78.793, 258.298 78.793, 261.545 75.545 L 264 73.091 264 38.720 L 264 4.349 261.686 2.174 C 258.514 -0.805, 253.043 -0.739, 250.174 2.314 M 184.201 45.028 C 180.471 48.502, 180.654 50.796, 185.972 67.218 C 191.338 83.790, 193.405 87, 198.712 87 C 201.513 87, 207 82.002, 207 79.451 C 207 75.423, 196.858 46.423, 194.864 44.750 C 192.049 42.388, 186.890 42.523, 184.201 45.028 M 317.136 44.750 C 315.142 46.423, 305 75.423, 305 79.451 C 305 82.002, 310.487 87, 313.288 87 C 318.552 87, 320.623 83.800, 326.027 67.320 C 329.208 57.620, 330.924 50.833, 330.560 49.385 C 329.124 43.661, 321.550 41.046, 317.136 44.750 M 104.455 49.455 C 101.566 52.343, 101.268 56.487, 103.694 60.027 C 111.681 71.683, 139.669 109.872, 141.234 111.250 C 143.516 113.259, 148.756 113.508, 151.087 111.718 C 153.659 109.743, 155.215 105.994, 154.555 103.362 C 153.902 100.763, 117.780 50.355, 115.084 48.282 C 112.355 46.183, 107.152 46.757, 104.455 49.455 M 396.922 48.282 C 394.237 50.355, 358.087 100.805, 357.440 103.382 C 356.264 108.068, 360.410 112.915, 365.639 112.968 C 370.486 113.017, 368.914 114.923, 402.200 68.659 C 410.873 56.606, 411.705 53.614, 407.545 49.455 C 404.848 46.757, 399.642 46.182, 396.922 48.282 M 239 94.121 C 220.772 96.216, 202.289 101.518, 185.794 109.384 C 154.122 124.488, 124.575 153.933, 109.567 185.349 C 82.045 242.960, 89.913 309.426, 130.072 358.587 C 163.763 399.829, 217.347 422.837, 268.750 418.134 C 310.983 414.269, 345.461 397.495, 374.721 366.578 C 420.591 318.111, 431.627 246.134, 402.495 185.437 C 387.434 154.056, 357.868 124.481, 326.651 109.567 C 298.834 96.278, 267.809 90.811, 239 94.121 M 233 111.431 C 200.693 117.215, 175.761 130.148, 152.955 152.955 C 131.877 174.033, 118.910 197.760, 112.491 227 C 109.993 238.377, 109.379 265.221, 111.334 277.545 C 121.067 338.883, 166.619 386.572, 228 399.684 C 240.050 402.258, 271.956 402.264, 283.875 399.694 C 342.730 387.004, 386.410 343.664, 399.489 284.981 C 402.009 273.674, 402.633 246.856, 400.666 234.455 C 395.358 201.004, 379.777 171.788, 354.895 148.629 C 335.750 130.811, 311.747 118.396, 285 112.478 C 274.803 110.222, 243.298 109.588, 233 111.431 M 76.923 123.923 C 73.819 127.028, 73.331 129.476, 75.075 133.203 C 76.157 135.517, 98.544 152.810, 102.387 154.302 C 109.557 157.084, 116.336 147.067, 111.250 141.204 C 107.439 136.810, 84.834 121, 82.362 121 C 80.915 121, 78.605 122.241, 76.923 123.923 M 413.700 130.750 C 400.544 140.198, 398 142.852, 398 147.124 C 398 149.941, 403.322 155, 406.286 155 C 409.337 155, 435.443 136.436, 436.938 133.203 C 437.522 131.940, 438 129.992, 438 128.876 C 438 126.059, 432.678 121, 429.714 121 C 428.223 121, 421.997 124.791, 413.700 130.750 M 14.635 173.073 C 11.613 175.449, 11.040 181.147, 13.496 184.392 C 14.437 185.636, 25.635 189.825, 46.214 196.630 C 63.421 202.321, 78.322 206.983, 79.327 206.989 C 81.973 207.005, 87 201.582, 87 198.712 C 87 192.852, 84.708 191.677, 52.534 181.044 C 35.820 175.520, 21.048 171, 19.707 171 C 18.367 171, 16.084 171.933, 14.635 173.073 M 459.500 180.992 C 427.761 191.507, 425 192.918, 425 198.633 C 425 201.503, 429.949 207, 432.532 207 C 436.411 207, 496.315 186.578, 498.121 184.640 C 501.016 181.532, 500.631 175.642, 497.365 173.073 C 495.916 171.933, 493.553 171.012, 492.115 171.027 C 490.677 171.041, 476 175.526, 459.500 180.992 M 35.789 249.363 C 33.112 251.398, 31.888 255.576, 33.064 258.669 C 34.955 263.643, 36.175 263.934, 55.295 263.968 C 72.876 264, 73.121 263.970, 75.545 261.545 C 77.093 259.998, 78 257.948, 78 256 C 78 254.052, 77.093 252.002, 75.545 250.455 C 73.121 248.030, 72.876 248, 55.295 248.032 C 42.282 248.055, 37.040 248.413, 35.789 249.363 M 436.455 250.455 C 434.907 252.002, 434 254.052, 434 256 C 434 257.948, 434.907 259.998, 436.455 261.545 C 438.879 263.970, 439.124 264, 456.705 263.968 C 475.825 263.934, 477.045 263.643, 478.936 258.669 C 480.112 255.576, 478.888 251.398, 476.211 249.363 C 474.960 248.413, 469.718 248.055, 456.705 248.032 C 439.124 248, 438.879 248.030, 436.455 250.455 M 45.739 315.419 C 25.241 322.235, 14.492 326.290, 13.521 327.574 C 12.719 328.633, 12.049 331.155, 12.032 333.177 C 11.995 337.390, 15.538 341, 19.707 341 C 21.048 341, 35.820 336.480, 52.534 330.956 C 84.708 320.323, 87 319.148, 87 313.288 C 87 310.119, 81.864 304.971, 78.827 305.096 C 77.547 305.148, 62.658 309.794, 45.739 315.419 M 427.923 307.923 C 424.485 311.361, 424.200 314.713, 427.038 318.321 C 428.705 320.441, 434.613 322.743, 459.466 330.956 C 476.180 336.480, 490.952 341, 492.293 341 C 493.633 341, 495.916 340.067, 497.365 338.927 C 500.631 336.358, 501.016 330.468, 498.121 327.360 C 496.315 325.422, 436.411 305, 432.532 305 C 431.605 305, 429.531 306.315, 427.923 307.923 M 101.908 357.820 C 101.032 358.194, 94.878 362.550, 88.233 367.500 C 76.448 376.277, 74 378.965, 74 383.124 C 74 385.987, 79.322 391, 82.362 391 C 84.834 391, 107.439 375.190, 111.250 370.796 C 113.259 368.480, 113.507 363.243, 111.718 360.913 C 109.208 357.643, 105.247 356.395, 101.908 357.820 M 400.923 359.923 C 397.823 363.023, 397.334 365.465, 399.062 369.203 C 400.557 372.436, 426.663 391, 429.714 391 C 432.678 391, 438 385.941, 438 383.124 C 438 382.008, 437.522 380.060, 436.938 378.797 C 435.443 375.564, 409.337 357, 406.286 357 C 404.923 357, 402.556 358.290, 400.923 359.923 M 142.500 399.119 C 141.400 399.660, 131.838 412.270, 121.250 427.141 C 100.462 456.340, 99.750 457.841, 104.455 462.545 C 107.162 465.252, 112.347 465.814, 115.123 463.701 C 116.015 463.022, 125.353 450.400, 135.873 435.653 C 148.441 418.034, 155 407.983, 155 406.343 C 155 403.141, 149.901 397.978, 146.827 398.068 C 145.547 398.105, 143.600 398.578, 142.500 399.119 M 359.923 400.923 C 358.313 402.534, 357 404.926, 357 406.252 C 357 408.584, 393.424 461.013, 396.924 463.718 C 399.640 465.818, 404.848 465.243, 407.545 462.545 C 412.250 457.841, 411.539 456.340, 390.750 427.145 C 368.662 396.125, 366.533 394.313, 359.923 400.923 M 193.658 427.054 C 191.626 428.652, 189.920 432.588, 185.972 444.782 C 182.958 454.091, 181.126 461.366, 181.461 462.700 C 182.877 468.344, 190.483 470.926, 194.864 467.250 C 196.858 465.577, 207 436.577, 207 432.549 C 207 429.998, 201.513 425, 198.712 425 C 197.369 425, 195.094 425.924, 193.658 427.054 M 307.923 427.923 C 306.315 429.531, 305 431.613, 305 432.549 C 305 436.577, 315.142 465.577, 317.136 467.250 C 321.550 470.954, 329.124 468.339, 330.560 462.615 C 330.924 461.167, 329.208 454.380, 326.027 444.680 C 322.088 432.667, 320.314 428.605, 318.320 427.037 C 314.713 424.200, 311.361 424.485, 307.923 427.923 M 250.455 436.455 L 248 438.909 248 473.280 L 248 507.651 250.314 509.826 C 253.486 512.805, 258.957 512.739, 261.826 509.686 C 263.971 507.402, 264 506.910, 264 473.140 L 264 438.909 261.545 436.455 C 259.998 434.907, 257.948 434, 256 434 C 254.052 434, 252.002 434.907, 250.455 436.455" stroke="none" fill="#2c3c64" fill-rule="evenodd"/><path d="M 333.340 133.690 C 334.173 135.302, 336.003 140.644, 337.405 145.561 C 344.604 170.796, 345.509 197.398, 340.004 221.914 C 326.415 282.424, 279.535 328.137, 218.728 340.170 C 209.651 341.966, 204.051 342.393, 189.500 342.396 C 169.052 342.401, 158.113 340.840, 141.393 335.534 L 131.085 332.263 134.225 336.881 C 156.178 369.170, 189.388 391.410, 228 399.680 C 240.042 402.259, 271.943 402.267, 283.875 399.694 C 342.730 387.004, 386.410 343.664, 399.489 284.981 C 402.009 273.674, 402.633 246.856, 400.666 234.455 C 394.335 194.558, 371.815 158.405, 339.287 135.918 C 332.230 131.039, 331.906 130.918, 333.340 133.690 M 152.477 153.250 L 144.500 161.500 152.750 153.523 C 160.412 146.115, 161.456 145, 160.727 145 C 160.576 145, 156.864 148.713, 152.477 153.250" stroke="none" fill="#fbd56f" fill-rule="evenodd"/></svg>