<svg xmlns="http://www.w3.org/2000/svg" width="20" height="20" viewBox="0 0 512 512" version="1.1"><path d="M 232 335.384 C 232 336.684, 236.266 347.593, 238.506 352.022 C 250.490 375.714, 271.983 392.839, 297.699 399.185 C 309.793 402.170, 327.011 402.160, 339.301 399.161 C 352.341 395.979, 366.402 388.984, 375.933 380.937 L 378.366 378.883 357.527 358.027 L 336.688 337.171 331.537 341.060 C 309.240 357.894, 276.200 360.704, 250.852 347.922 C 247.745 346.356, 242.233 342.825, 238.602 340.077 C 234.971 337.329, 232 335.217, 232 335.384" stroke="none" fill="#ffffff" fill-rule="evenodd"/><path d="M 363.224 127.276 L 342.967 147.551 347.257 151.761 L 351.547 155.972 371.995 135.505 L 392.443 115.038 388.519 111.019 C 386.360 108.809, 384.344 107, 384.038 107 C 383.732 107, 374.366 116.124, 363.224 127.276 M 363.721 127.778 L 343.962 147.557 347.756 151.262 L 351.551 154.968 371.494 135.006 L 391.436 115.045 388.022 111.523 C 386.144 109.585, 384.354 108, 384.044 108 C 383.735 108, 374.589 116.900, 363.721 127.778 M 248.250 117.743 C 252.512 117.931, 259.488 117.931, 263.750 117.743 C 268.012 117.556, 264.525 117.402, 256 117.402 C 247.475 117.402, 243.988 117.556, 248.250 117.743 M 111.483 123.017 L 106.541 128.035 127.039 148.533 L 147.537 169.031 153.019 163.266 L 158.500 157.500 152.980 162.739 L 147.459 167.978 127.503 148.003 L 107.547 128.028 112.486 123.014 C 115.202 120.256, 117.200 118, 116.925 118 C 116.650 118, 114.201 120.258, 111.483 123.017 M 244.762 135.707 C 246.006 135.946, 247.806 135.937, 248.762 135.687 C 249.718 135.437, 248.700 135.241, 246.500 135.252 C 244.300 135.263, 243.518 135.468, 244.762 135.707 M 263.250 135.689 C 264.212 135.941, 265.788 135.941, 266.750 135.689 C 267.712 135.438, 266.925 135.232, 265 135.232 C 263.075 135.232, 262.288 135.438, 263.250 135.689 M 295.496 211.250 L 252.500 254.500 295.750 211.504 C 319.538 187.857, 339 168.394, 339 168.254 C 339 167.551, 335.459 171.051, 295.496 211.250 M 117.402 256 C 117.402 264.525, 117.556 268.012, 117.743 263.750 C 117.931 259.488, 117.931 252.512, 117.743 248.250 C 117.556 243.988, 117.402 247.475, 117.402 256 M 135.252 250.500 C 135.263 252.700, 135.468 253.482, 135.707 252.238 C 135.946 250.994, 135.937 249.194, 135.687 248.238 C 135.437 247.282, 135.241 248.300, 135.252 250.500 M 135.252 261.500 C 135.263 263.700, 135.468 264.482, 135.707 263.238 C 135.946 261.994, 135.937 260.194, 135.687 259.238 C 135.437 258.282, 135.241 259.300, 135.252 261.500 M 126.503 363.997 L 106.524 383.995 110.995 388.247 L 115.467 392.500 111.512 388.231 L 107.557 383.962 127.519 363.981 C 138.498 352.991, 147.256 344, 146.981 344 C 146.706 344, 137.491 352.999, 126.503 363.997 M 151.500 348 C 153.648 350.200, 155.631 352, 155.906 352 C 156.181 352, 154.648 350.200, 152.500 348 C 150.352 345.800, 148.369 344, 148.094 344 C 147.819 344, 149.352 345.800, 151.500 348" stroke="none" fill="#c18516" fill-rule="evenodd"/><path d="M 344.988 231.180 C 350.756 238.338, 357.176 250.878, 359.487 259.500 C 362.036 269.009, 362.549 284.183, 360.641 293.602 C 357.581 308.701, 350.432 322.260, 339.778 333.171 C 336.080 336.958, 333.820 339.362, 334.756 338.514 C 336.321 337.095, 338.147 338.662, 357.711 358.210 L 378.965 379.448 384.061 373.974 C 395.107 362.108, 403.286 346.421, 406.720 330.517 C 408.740 321.158, 408.664 302.579, 406.566 293.002 C 404.726 284.603, 399.841 272.662, 394.831 264.314 C 387.587 252.246, 372.265 238.377, 359.048 231.924 C 352.787 228.868, 342.621 225, 340.848 225 C 340.386 225, 342.249 227.781, 344.988 231.180 M 231.083 334.250 C 231.313 334.387, 232.850 335.625, 234.500 337 L 237.500 339.500 235.076 336.750 C 233.742 335.238, 232.205 334, 231.659 334 C 231.113 334, 230.854 334.113, 231.083 334.250" stroke="none" fill="#e9edf5" fill-rule="evenodd"/><path d="M 441 79.500 C 444.543 83.075, 447.667 86, 447.942 86 C 448.217 86, 445.543 83.075, 442 79.500 C 438.457 75.925, 435.333 73, 435.058 73 C 434.783 73, 437.457 75.925, 441 79.500 M 448 87.313 C 448 87.485, 449.462 88.948, 451.250 90.563 L 454.500 93.500 451.563 90.250 C 448.825 87.221, 448 86.540, 448 87.313 M 460.437 102.329 C 461.977 104.348, 463.440 106, 463.687 106 C 464.381 106, 460.052 100.150, 458.772 99.359 C 458.148 98.973, 458.897 100.310, 460.437 102.329 M 468.639 114 C 471.199 117.850, 473.479 121, 473.706 121 C 474.237 121, 473.494 119.753, 468.789 112.750 C 466.664 109.588, 464.714 107, 464.455 107 C 464.196 107, 466.079 110.150, 468.639 114 M 478.500 130 C 479.353 131.650, 480.276 133, 480.551 133 C 480.826 133, 480.353 131.650, 479.500 130 C 478.647 128.350, 477.724 127, 477.449 127 C 477.174 127, 477.647 128.350, 478.500 130 M 484.705 141.472 C 486.182 144.482, 487.557 146.776, 487.762 146.571 C 488.211 146.122, 483.167 136, 482.494 136 C 482.234 136, 483.229 138.462, 484.705 141.472 M 498.141 173 C 498.141 173.825, 498.527 175.400, 499 176.500 C 499.542 177.761, 499.859 177.945, 499.859 177 C 499.859 176.175, 499.473 174.600, 499 173.500 C 498.458 172.239, 498.141 172.055, 498.141 173 M 510.232 228 C 510.232 229.925, 510.438 230.713, 510.689 229.750 C 510.941 228.787, 510.941 227.213, 510.689 226.250 C 510.438 225.287, 510.232 226.075, 510.232 228 M 511.286 238.500 C 511.294 241.250, 511.488 242.256, 511.718 240.736 C 511.947 239.216, 511.941 236.966, 511.704 235.736 C 511.467 234.506, 511.279 235.750, 511.286 238.500 M 381.958 248.250 C 386.102 252.665, 387 253.459, 387 252.708 C 387 252.548, 384.863 250.410, 382.250 247.958 L 377.500 243.500 381.958 248.250 M 162.997 344.535 L 72.500 435.067 78.754 441.048 C 92.171 453.880, 107.242 465.506, 123.224 475.351 C 132.149 480.849, 154.304 491.662, 164.500 495.496 C 211.740 513.260, 264.312 516.818, 313.500 505.581 C 338.403 499.892, 368.317 487.849, 389 475.185 C 397.273 470.120, 399.009 468.931, 410.130 460.709 C 417.663 455.140, 448 427.518, 448 426.228 C 448 425.862, 445.405 428.131, 442.232 431.270 L 436.465 436.978 407.989 408.489 C 392.327 392.820, 379.197 380, 378.810 380 C 378.423 380, 375.166 382.225, 371.572 384.945 C 363.730 390.881, 352.910 396.165, 342.302 399.238 C 335.647 401.166, 332.147 401.499, 318.500 401.499 C 299.635 401.499, 292.329 399.846, 277.632 392.256 C 256.739 381.465, 241.332 363.948, 233.598 342.190 C 232.169 338.170, 231 334.405, 231 333.824 C 231 333.243, 232.826 334.417, 235.057 336.432 C 253.584 353.170, 282.299 359.634, 306.500 352.515 C 316.336 349.621, 326.671 344.473, 332.403 339.611 L 336.071 336.500 294.782 295.251 L 253.493 254.002 162.997 344.535 M 511.286 273.500 C 511.294 276.250, 511.488 277.256, 511.718 275.736 C 511.947 274.216, 511.941 271.966, 511.704 270.736 C 511.467 269.506, 511.279 270.750, 511.286 273.500 M 510.232 284 C 510.232 285.925, 510.438 286.712, 510.689 285.750 C 510.941 284.788, 510.941 283.212, 510.689 282.250 C 510.438 281.288, 510.232 282.075, 510.232 284 M 498.571 336.571 C 498.204 338.037, 498.096 339.429, 498.331 339.665 C 498.567 339.900, 499.061 338.894, 499.429 337.429 C 499.796 335.963, 499.904 334.571, 499.669 334.335 C 499.433 334.100, 498.939 335.106, 498.571 336.571 M 484.705 370.528 C 483.229 373.538, 482.234 376, 482.494 376 C 483.167 376, 488.211 365.878, 487.762 365.429 C 487.557 365.224, 486.182 367.518, 484.705 370.528 M 478.500 382 C 477.647 383.650, 477.174 385, 477.449 385 C 477.724 385, 478.647 383.650, 479.500 382 C 480.353 380.350, 480.826 379, 480.551 379 C 480.276 379, 479.353 380.350, 478.500 382 M 468.639 398 C 466.079 401.850, 464.196 405, 464.455 405 C 464.714 405, 466.664 402.413, 468.789 399.250 C 473.494 392.247, 474.237 391, 473.706 391 C 473.479 391, 471.199 394.150, 468.639 398 M 460.437 409.671 C 458.897 411.690, 458.148 413.027, 458.772 412.641 C 460.052 411.850, 464.381 406, 463.687 406 C 463.440 406, 461.977 407.652, 460.437 409.671 M 450.437 422.250 L 447.500 425.500 450.750 422.563 C 452.538 420.948, 454 419.485, 454 419.313 C 454 418.540, 453.175 419.221, 450.437 422.250" stroke="none" fill="#414952" fill-rule="evenodd"/><path d="M 343.984 163.516 L 253.504 254.001 294.725 295.222 L 335.947 336.444 339.557 332.972 C 341.542 331.062, 345.671 325.750, 348.731 321.166 C 368.035 292.256, 365.347 254.420, 342.167 228.763 C 340.271 226.664, 338.933 224.734, 339.193 224.473 C 340.016 223.651, 352.094 228.025, 360.061 232.031 C 381.983 243.053, 399.634 265.060, 406.154 289.500 C 409.115 300.598, 409.334 322.215, 406.595 333 C 402.538 348.975, 395.062 362.770, 384.351 374.047 L 379.082 379.595 407.860 408.360 L 436.639 437.126 443.338 430.025 C 468.437 403.419, 489.005 368.013, 500.059 332.386 C 508.157 306.288, 511.385 284.517, 511.385 256 C 511.385 220.928, 505.973 192.577, 493.058 160 C 481.832 131.686, 459.318 97.228, 439.327 77.766 L 434.464 73.032 343.984 163.516" stroke="none" fill="#333940" fill-rule="evenodd"/><path d="M 271 88.755 L 271 118 256.272 118 L 241.544 118 250 126.500 C 258.122 134.664, 258.634 135, 262.978 135.003 C 270.186 135.008, 284.740 137.861, 294.500 141.182 C 309.160 146.170, 320.592 152.496, 333.105 162.547 L 339.710 167.852 345.568 161.931 L 351.427 156.011 347.205 151.709 L 342.984 147.408 346.492 144.008 C 348.421 142.138, 350 140.131, 350 139.549 C 350 138.967, 332.225 120.720, 310.500 99 L 271 59.509 271 88.755 M 412.991 93.750 L 391.500 115.500 413.250 94.009 C 425.212 82.189, 435 72.401, 435 72.259 C 435 71.549, 432.961 73.540, 412.991 93.750 M 157.996 158.504 L 147.528 169.008 153.674 175.154 L 159.820 181.300 170.479 170.498 L 181.137 159.697 175.350 153.848 C 172.167 150.632, 169.315 148, 169.013 148 C 168.711 148, 163.754 152.727, 157.996 158.504 M 118 256.272 L 118 271 88.755 271 L 59.509 271 99 310.500 C 120.720 332.225, 138.967 350, 139.549 350 C 140.131 350, 142.138 348.421, 144.008 346.492 L 147.408 342.984 151.720 347.216 L 156.032 351.448 162.005 345.474 L 167.977 339.500 161.653 331.725 C 154.442 322.860, 148.088 312.210, 143.963 302.073 C 139.089 290.096, 135.026 272.132, 135.008 262.478 C 135.001 258.764, 134.348 257.808, 126.500 250 L 118 241.544 118 256.272 M 429.453 444.250 L 425.500 448.500 429.750 444.547 C 433.702 440.871, 434.460 440, 433.703 440 C 433.540 440, 431.627 441.913, 429.453 444.250" stroke="none" fill="#2864f0" fill-rule="evenodd"/><path d="M 225 1.514 C 116.007 14.979, 26.946 97.022, 4.936 204.237 C -1.684 236.486, -1.684 275.514, 4.936 307.763 C 14.004 351.934, 34.582 392.503, 65.838 427.830 L 72.323 435.160 93.647 413.853 L 114.971 392.546 110.759 388.254 L 106.546 383.962 123.039 367.468 L 139.533 350.975 99.766 311.254 L 60 271.534 60 256.267 L 60 241 88.772 241 L 117.544 241 126.019 249.519 L 134.494 258.038 135.695 246.019 C 136.355 239.408, 138.055 229.612, 139.472 224.250 C 142.474 212.887, 150.827 195.163, 157.359 186.295 C 159.873 182.882, 161.383 180.299, 160.715 180.554 C 160.047 180.810, 147.578 169.090, 133.006 154.509 L 106.513 127.999 117.267 117.249 L 128.021 106.500 154.965 133.500 L 181.909 160.500 184.705 158.228 C 200.082 145.728, 231.121 135, 251.913 135 L 258.458 135 249.729 126.230 L 241 117.460 241 88.730 L 241 60 256.267 60 L 271.534 60 311.254 99.766 L 350.975 139.533 367.465 123.042 L 383.956 106.551 388 110.500 L 392.045 114.449 413.272 93.165 L 434.500 71.880 429.500 67.285 C 390.200 31.170, 339.422 7.873, 286 1.446 C 271.761 -0.267, 239.123 -0.231, 225 1.514 M 252 373.313 C 252 373.485, 253.463 374.948, 255.250 376.563 L 258.500 379.500 255.563 376.250 C 252.825 373.221, 252 372.540, 252 373.313" stroke="none" fill="#4a7aff" fill-rule="evenodd"/><path d="M 241 88.500 L 241 117 256 117 L 271 117 271 88.500 L 271 60 256 60 L 241 60 241 88.500 M 117.420 117.561 L 107.640 128.122 127.497 147.997 L 147.354 167.872 157.677 158.313 C 163.355 153.055, 168 148.242, 168 147.617 C 168 146.451, 128.994 107, 127.841 107 C 127.488 107, 122.799 111.752, 117.420 117.561 M 363.721 127.778 L 343.962 147.557 347.756 151.262 L 351.551 154.968 371.494 135.006 L 391.436 115.045 388.022 111.523 C 386.144 109.585, 384.354 108, 384.044 108 C 383.735 108, 374.589 116.900, 363.721 127.778 M 247 135.594 C 213.363 139.371, 188.353 151.519, 167.589 174.169 C 146.659 196.999, 135.833 224.759, 135.871 255.500 C 135.899 279.028, 141.492 299.549, 153.110 318.759 C 156.951 325.109, 167.187 338, 168.388 338 C 169.014 338, 175.815 331.700, 183.500 324 C 191.185 316.300, 196.939 310, 196.287 310 C 192.784 310, 180.831 288.499, 177.386 276 C 174.886 266.929, 174.886 245.071, 177.386 236 C 183.131 215.160, 196.146 197.953, 214.682 186.693 C 225.844 179.912, 243.202 175, 256 175 C 273.064 175, 296.316 183.535, 307.280 193.823 L 310.060 196.431 324.228 182.263 C 340.582 165.909, 340.299 168.132, 327.223 158.729 C 312.342 148.028, 295.658 140.738, 278.654 137.508 C 270.988 136.051, 252.748 134.949, 247 135.594 M 60 256 L 60 271 88.500 271 L 117 271 117 256 L 117 241 88.500 241 L 60 241 60 256 M 127.500 364 L 107.524 383.995 111.524 387.995 L 115.524 391.995 135.500 372 L 155.476 352.005 151.476 348.005 L 147.476 344.005 127.500 364" stroke="none" fill="#ffa300" fill-rule="evenodd"/><path d="M 241.834 176.567 C 215.824 181.273, 193.515 198.434, 182.566 222.160 C 176.921 234.389, 175.594 240.831, 175.594 256 C 175.594 271.169, 176.921 277.611, 182.566 289.840 C 186.496 298.356, 194.500 310, 196.424 310 C 197.151 310, 222.988 284.419, 253.839 253.154 L 309.932 196.309 307.216 193.762 C 299.061 186.114, 283.397 178.951, 269.539 176.535 C 259.013 174.699, 252.111 174.707, 241.834 176.567" stroke="none" fill="#fcda15" fill-rule="evenodd"/></svg>