<svg xmlns="http://www.w3.org/2000/svg" width="20" height="20" viewBox="0 0 512 512" version="1.1"><path d="M 89.557 86.223 C 88.161 88.215, 88 108.274, 88 280.288 C 88 474.293, 88.012 474.972, 91.400 477.235 C 92.005 477.639, 153.138 477.976, 227.250 477.985 C 360.677 478, 362.020 477.980, 364 476 C 365.971 474.029, 366 472.667, 366 382.270 L 366 290.539 332.216 324.270 L 298.432 358 279.946 358 L 261.460 358 252 367.500 L 242.540 377 222.444 377 C 202.732 377, 202.307 376.956, 200.174 374.686 C 197.003 371.310, 197.223 365.756, 200.635 363.073 C 203.053 361.170, 204.596 361, 219.408 361 L 235.547 361 243.273 353.228 L 251 345.456 251 327.728 L 251 310 227.056 310 C 203.632 310, 203.057 309.951, 200.611 307.750 C 197.008 304.509, 196.736 299.264, 200 296 C 201.907 294.093, 203.333 294, 230.671 294 C 256.242 294, 259.545 294.184, 261.219 295.698 C 263.020 297.328, 265.168 295.325, 314.548 245.952 L 366 194.507 366 141.476 C 366 95.097, 365.805 88.166, 364.443 86.223 C 362.908 84.031, 362.552 84, 338.943 84 L 315 84 315 90.429 C 315 97.691, 313.822 99.581, 308.718 100.503 C 306.948 100.822, 274.298 100.953, 236.161 100.792 L 166.823 100.500 164.911 98.139 C 163.513 96.412, 163 94.197, 163 89.889 L 163 84 127.057 84 L 91.113 84 89.557 86.223 M 132.865 161.982 L 129.883 164.963 130.192 185.072 C 130.591 211.119, 128.380 209, 155.156 209 C 181.879 209, 180 210.843, 180 184.627 C 180 173.922, 179.720 164.435, 179.379 163.545 C 177.920 159.744, 173.842 159, 154.473 159 L 135.846 159 132.865 161.982 M 203 159.709 C 197.778 161.630, 196.093 169.093, 200 173 C 201.869 174.869, 203.333 175, 222.326 175 C 242.279 175, 242.691 174.958, 244.826 172.686 C 246.022 171.413, 247 169.199, 247 167.767 C 247 159.940, 244.274 158.981, 222.300 159.079 C 212.510 159.122, 203.825 159.406, 203 159.709 M 146 184 L 146 193 155 193 L 164 193 164 184 L 164 175 155 175 L 146 175 146 184 M 200.189 195.039 C 196.906 198.097, 196.939 203.162, 200.264 206.750 C 202.331 208.981, 202.582 209, 230.720 209 L 259.091 209 261.545 206.545 C 263.093 204.998, 264 202.948, 264 201 C 264 199.052, 263.093 197.002, 261.545 195.455 L 259.091 193 230.734 193 C 203.579 193, 202.284 193.086, 200.189 195.039 M 284.174 195.314 C 281.003 198.690, 281.223 204.244, 284.635 206.927 C 287.093 208.861, 288.559 209, 306.500 209 C 324.441 209, 325.907 208.861, 328.365 206.927 C 331.885 204.159, 332.044 198.329, 328.686 195.174 C 326.468 193.091, 325.530 193, 306.360 193 C 286.735 193, 286.307 193.045, 284.174 195.314 M 134.364 261.139 C 133.189 261.725, 131.727 263.304, 131.114 264.649 C 129.617 267.934, 129.614 302.059, 131.110 305.343 C 132.988 309.464, 135.863 310, 156.093 310 C 181.766 310, 180 311.835, 180 285.156 C 180 258.382, 182.075 260.563, 156.340 260.287 C 143.879 260.153, 135.706 260.470, 134.364 261.139 M 200.707 262.016 C 197.165 264.802, 196.901 270.898, 200.189 273.961 C 202.241 275.873, 203.631 276, 222.514 276 C 242.270 276, 242.693 275.956, 244.826 273.686 C 247.528 270.809, 247.645 266.019, 245.090 262.861 C 243.216 260.544, 242.814 260.494, 223.297 260.194 C 204.283 259.901, 203.295 259.980, 200.707 262.016 M 146 285 L 146 294 155 294 L 164 294 164 285 L 164 276 155 276 L 146 276 146 285 M 134.229 361.669 C 130.797 363.050, 130 367.618, 130 385.903 C 130 405.093, 130.570 408.027, 134.657 409.890 C 136.155 410.572, 144.033 411, 155.097 411 C 173.810 411, 177.931 410.229, 179.379 406.455 C 179.720 405.565, 180 396.078, 180 385.373 C 180 359.150, 181.854 360.973, 155.295 361.079 C 144.408 361.122, 134.928 361.388, 134.229 361.669 M 146 386 L 146 395 155 395 L 164 395 164 386 L 164 377 155 377 L 146 377 146 386 M 200 397 C 196.717 400.283, 197.010 405.511, 200.661 408.793 L 203.212 411.087 231.696 410.793 L 260.179 410.500 262.090 408.139 C 264.580 405.062, 264.516 400.926, 261.927 397.635 L 259.855 395 230.927 395 C 203.333 395, 201.908 395.092, 200 397 M 284 397 C 280.908 400.092, 281.273 406.283, 284.707 408.984 C 287.295 411.020, 288.283 411.099, 307.297 410.806 C 326.814 410.506, 327.216 410.456, 329.090 408.139 C 331.608 405.027, 331.564 399.564, 329 397 C 327.130 395.130, 325.667 395, 306.500 395 C 287.333 395, 285.870 395.130, 284 397" stroke="none" fill="#f2fdff" fill-rule="evenodd"/><path d="M 230 0.887 C 217.518 4.936, 208.067 15.938, 206.357 28.409 L 205.728 33 213.657 33 L 221.585 33 222.732 28.712 C 224.963 20.369, 230.814 16, 239.753 16 C 247.428 16, 254.365 21.641, 255.888 29.123 L 256.576 32.500 264.420 32.794 L 272.263 33.089 271.793 28.193 C 270.826 18.130, 263.311 7.778, 253.474 2.958 C 249.660 1.089, 246.634 0.469, 240.500 0.298 C 236.100 0.176, 231.375 0.441, 230 0.887 M 363.777 84.557 L 366 86.113 366 140.292 L 366 194.470 378.500 182 L 391 169.530 391 128.720 L 391 87.909 388.545 85.455 C 386.206 83.115, 385.515 83, 373.823 83 C 362.434 83, 361.714 83.112, 363.777 84.557 M 145.750 159.745 C 150.837 159.927, 159.162 159.927, 164.250 159.745 C 169.338 159.564, 165.175 159.415, 155 159.415 C 144.825 159.415, 140.662 159.564, 145.750 159.745 M 130.417 184.500 C 130.418 194.950, 130.566 199.089, 130.746 193.698 C 130.926 188.307, 130.925 179.757, 130.744 174.698 C 130.563 169.639, 130.416 174.050, 130.417 184.500 M 395 260.500 C 392.571 262.975, 390.809 265, 391.084 265 C 391.359 265, 393.571 262.975, 396 260.500 C 398.429 258.025, 400.191 256, 399.916 256 C 399.641 256, 397.429 258.025, 395 260.500 M 212.750 260.745 C 217.837 260.927, 226.162 260.927, 231.250 260.745 C 236.338 260.564, 232.175 260.415, 222 260.415 C 211.825 260.415, 207.662 260.564, 212.750 260.745 M 378.235 278.264 L 366 290.529 365.985 382.514 C 365.976 433.106, 365.639 474.988, 365.235 475.585 C 364.831 476.182, 363.600 477.203, 362.500 477.853 C 360.906 478.795, 363.208 478.981, 373.841 478.768 C 386.496 478.514, 387.279 478.379, 389.091 476.139 C 390.942 473.850, 391 470.644, 391 369.889 C 391 312.750, 390.881 266, 390.735 266 C 390.589 266, 384.964 271.519, 378.235 278.264 M 130.417 285.500 C 130.418 295.950, 130.566 300.089, 130.746 294.698 C 130.926 289.307, 130.925 280.757, 130.744 275.698 C 130.563 270.639, 130.416 275.050, 130.417 285.500 M 270.199 357.744 C 274.984 357.927, 283.084 357.928, 288.199 357.746 C 293.315 357.564, 289.400 357.414, 279.500 357.413 C 269.600 357.412, 265.415 357.561, 270.199 357.744 M 211.797 361.745 C 216.361 361.930, 223.561 361.929, 227.797 361.742 C 232.034 361.555, 228.300 361.404, 219.500 361.405 C 210.700 361.406, 207.234 361.559, 211.797 361.745 M 130.417 385.500 C 130.418 395.950, 130.566 400.089, 130.746 394.698 C 130.926 389.307, 130.925 380.757, 130.744 375.698 C 130.563 370.639, 130.416 375.050, 130.417 385.500 M 146.302 410.746 C 151.693 410.926, 160.243 410.925, 165.302 410.744 C 170.361 410.563, 165.950 410.416, 155.500 410.417 C 145.050 410.418, 140.911 410.566, 146.302 410.746 M 217.250 410.748 C 224.813 410.917, 237.188 410.917, 244.750 410.748 C 252.313 410.578, 246.125 410.439, 231 410.439 C 215.875 410.439, 209.688 410.578, 217.250 410.748 M 297.302 410.746 C 302.693 410.926, 311.243 410.925, 316.302 410.744 C 321.361 410.563, 316.950 410.416, 306.500 410.417 C 296.050 410.418, 291.911 410.566, 297.302 410.746" stroke="none" fill="#d5e0f2" fill-rule="evenodd"/><path d="M 390.196 50.969 C 392.229 52.082, 395.154 54.646, 396.696 56.668 L 399.500 60.343 399.777 110.283 L 400.054 160.223 404.913 155.678 C 407.841 152.939, 411.109 150.883, 413.137 150.502 C 416.545 149.863, 421.101 150.327, 423.012 151.508 C 423.735 151.955, 423.972 137.810, 423.779 105.642 L 423.500 59.130 420.500 55.976 C 415.257 50.463, 412.668 49.657, 399 49.285 L 386.500 48.944 390.196 50.969 M 411.750 244.749 L 400 256.530 400 377.449 C 400 498.002, 399.994 498.382, 397.913 502.679 C 396.573 505.447, 394.336 507.901, 391.663 509.534 L 387.500 512.078 400.582 511.789 C 413.031 511.514, 413.834 511.370, 417.191 508.806 C 424.549 503.188, 424.036 514.348, 423.754 366.075 L 423.500 232.969 411.750 244.749" stroke="none" fill="#ea9d57" fill-rule="evenodd"/><path d="M 64.500 50.885 C 59.870 53.028, 56.582 56.314, 55.067 60.315 C 54.323 62.278, 54 129.139, 54 281.105 C 54 496.274, 54.025 499.130, 55.977 502.956 C 57.065 505.087, 59.427 507.882, 61.227 509.166 L 64.500 511.500 224 511.786 C 311.725 511.944, 384.972 511.809, 386.771 511.487 C 390.834 510.760, 396.853 505.596, 398.649 501.298 C 399.758 498.643, 400 476.470, 400 377.324 L 400 256.584 395.500 261 L 391 265.416 391 369.597 C 391 469.124, 390.918 473.880, 389.167 476.042 L 387.334 478.306 239.418 478.082 C 106.031 477.881, 91.330 477.704, 89.751 476.275 C 88.094 474.776, 88 464.230, 88 280.845 C 88 87.553, 88.006 86.994, 90.024 84.976 C 91.993 83.007, 93.048 82.959, 128.047 83.226 L 164.046 83.500 163.773 66.500 L 163.500 49.500 116 49.267 C 71.594 49.049, 68.239 49.154, 64.500 50.885 M 315 66 L 315 83 350.545 83 L 386.091 83 388.545 85.455 L 391 87.909 391 128.663 L 391 169.416 395.500 165 L 400 160.584 399.978 112.042 C 399.958 66.866, 399.827 63.216, 398.095 59.401 C 396.244 55.326, 393.049 52.497, 387.703 50.201 C 385.703 49.343, 374.940 49, 349.953 49 L 315 49 315 66 M 251 332 C 251 351.667, 251.127 353.127, 253 355 C 254.877 356.877, 256.333 357, 276.742 357 L 298.484 357 275.500 334 C 262.859 321.350, 252.175 311, 251.758 311 C 251.341 311, 251 320.450, 251 332" stroke="none" fill="#ffbe7c" fill-rule="evenodd"/><path d="M 230 0.887 C 217.518 4.936, 208.067 15.938, 206.357 28.409 L 205.728 33 213.657 33 L 221.585 33 222.732 28.712 C 224.963 20.369, 230.814 16, 239.753 16 C 247.428 16, 254.365 21.641, 255.888 29.123 L 256.576 32.500 264.420 32.794 L 272.263 33.089 271.793 28.193 C 270.826 18.130, 263.311 7.778, 253.474 2.958 C 249.660 1.089, 246.634 0.469, 240.500 0.298 C 236.100 0.176, 231.375 0.441, 230 0.887 M 363.777 84.557 L 366 86.113 366 140.292 L 366 194.470 378.500 182 L 391 169.530 391 128.720 L 391 87.909 388.545 85.455 C 386.206 83.115, 385.515 83, 373.823 83 C 362.434 83, 361.714 83.112, 363.777 84.557 M 145.750 159.745 C 150.837 159.927, 159.162 159.927, 164.250 159.745 C 169.338 159.564, 165.175 159.415, 155 159.415 C 144.825 159.415, 140.662 159.564, 145.750 159.745 M 130.417 184.500 C 130.418 194.950, 130.566 199.089, 130.746 193.698 C 130.926 188.307, 130.925 179.757, 130.744 174.698 C 130.563 169.639, 130.416 174.050, 130.417 184.500 M 395 260.500 C 392.571 262.975, 390.809 265, 391.084 265 C 391.359 265, 393.571 262.975, 396 260.500 C 398.429 258.025, 400.191 256, 399.916 256 C 399.641 256, 397.429 258.025, 395 260.500 M 212.750 260.745 C 217.837 260.927, 226.162 260.927, 231.250 260.745 C 236.338 260.564, 232.175 260.415, 222 260.415 C 211.825 260.415, 207.662 260.564, 212.750 260.745 M 378.235 278.264 L 366 290.529 365.985 382.514 C 365.976 433.106, 365.639 474.988, 365.235 475.585 C 364.831 476.182, 363.600 477.203, 362.500 477.853 C 360.906 478.795, 363.208 478.981, 373.841 478.768 C 386.496 478.514, 387.279 478.379, 389.091 476.139 C 390.942 473.850, 391 470.644, 391 369.889 C 391 312.750, 390.881 266, 390.735 266 C 390.589 266, 384.964 271.519, 378.235 278.264 M 130.417 285.500 C 130.418 295.950, 130.566 300.089, 130.746 294.698 C 130.926 289.307, 130.925 280.757, 130.744 275.698 C 130.563 270.639, 130.416 275.050, 130.417 285.500 M 270.199 357.744 C 274.984 357.927, 283.084 357.928, 288.199 357.746 C 293.315 357.564, 289.400 357.414, 279.500 357.413 C 269.600 357.412, 265.415 357.561, 270.199 357.744 M 211.797 361.745 C 216.361 361.930, 223.561 361.929, 227.797 361.742 C 232.034 361.555, 228.300 361.404, 219.500 361.405 C 210.700 361.406, 207.234 361.559, 211.797 361.745 M 130.417 385.500 C 130.418 395.950, 130.566 400.089, 130.746 394.698 C 130.926 389.307, 130.925 380.757, 130.744 375.698 C 130.563 370.639, 130.416 375.050, 130.417 385.500 M 146.302 410.746 C 151.693 410.926, 160.243 410.925, 165.302 410.744 C 170.361 410.563, 165.950 410.416, 155.500 410.417 C 145.050 410.418, 140.911 410.566, 146.302 410.746 M 217.250 410.748 C 224.813 410.917, 237.188 410.917, 244.750 410.748 C 252.313 410.578, 246.125 410.439, 231 410.439 C 215.875 410.439, 209.688 410.578, 217.250 410.748 M 297.302 410.746 C 302.693 410.926, 311.243 410.925, 316.302 410.744 C 321.361 410.563, 316.950 410.416, 306.500 410.417 C 296.050 410.418, 291.911 410.566, 297.302 410.746" stroke="none" fill="#d5e0f2" fill-rule="evenodd"/><path d="M 287.500 33.195 C 288.600 33.819, 289.831 34.818, 290.235 35.415 C 290.639 36.012, 290.976 49.965, 290.985 66.421 C 290.998 92.874, 290.808 96.555, 289.345 98.171 C 287.751 99.933, 288.109 99.999, 299.095 99.985 C 305.368 99.976, 310.995 99.639, 311.600 99.235 C 314.654 97.196, 315 93.725, 315 65.138 L 315 36.145 312.365 34.073 C 310.023 32.230, 308.384 32.003, 297.615 32.030 C 288.063 32.054, 285.923 32.301, 287.500 33.195 M 234 78 C 232.267 79.733, 232 81.333, 232 90 L 232 100 239.500 100 L 247 100 247 90.635 C 247 82.675, 246.689 80.874, 244.927 78.635 C 242.330 75.333, 236.978 75.022, 234 78" stroke="none" fill="#ffb629" fill-rule="evenodd"/><path d="M 167.335 33.027 C 166.145 33.492, 164.742 34.638, 164.218 35.574 C 163.643 36.602, 163.459 49.011, 163.754 66.888 C 164.162 91.579, 164.498 96.791, 165.776 98.250 C 167.178 99.849, 170.101 100, 199.655 100 L 232 100 232 90 C 232 81.333, 232.267 79.733, 234 78 C 236.978 75.022, 242.330 75.333, 244.927 78.635 C 246.689 80.874, 247 82.675, 247 90.635 L 247 100 267.345 100 C 285.785 100, 287.845 99.829, 289.345 98.171 C 290.808 96.555, 291 92.848, 291 66.243 C 291 35.907, 290.936 35.265, 287.679 32.869 C 286.812 32.231, 168.976 32.387, 167.335 33.027" stroke="none" fill="#ffcf4d" fill-rule="evenodd"/><path d="M 409.114 153.072 L 405.727 155.136 419.283 168.818 C 428.512 178.134, 433.050 183.457, 433.503 185.500 C 433.868 187.150, 434.359 189.111, 434.593 189.857 C 435.805 193.717, 432.611 199.630, 425.198 207.247 L 417.588 215.067 423.314 220.783 L 429.040 226.500 442.426 213 C 453.352 201.981, 456.020 198.719, 456.944 195.250 C 459.120 187.085, 457.496 184.208, 441.654 168.169 C 433.869 160.287, 426.285 153.199, 424.800 152.419 C 420.784 150.309, 413.123 150.628, 409.114 153.072" stroke="none" fill="#e6485d" fill-rule="evenodd"/><path d="M 394.498 166.002 L 381.525 179.004 399.495 196.995 L 417.465 214.985 424.306 208.243 C 428.069 204.534, 431.868 200.150, 432.747 198.500 C 434.752 194.738, 434.722 187.277, 432.688 183.429 C 431.836 181.818, 425.500 174.900, 418.609 168.055 C 408.961 158.471, 406.328 155.309, 407.162 154.305 C 410.391 150.414, 406.059 154.415, 394.498 166.002 M 440.985 214.750 L 428.500 227.500 441.250 215.015 C 453.093 203.418, 454.453 202, 453.735 202 C 453.589 202, 447.852 207.738, 440.985 214.750" stroke="none" fill="#ff5876" fill-rule="evenodd"/><path d="M 64.500 50.885 C 59.870 53.028, 56.582 56.314, 55.067 60.315 C 54.323 62.278, 54 129.139, 54 281.105 C 54 496.274, 54.025 499.130, 55.977 502.956 C 57.065 505.087, 59.427 507.882, 61.227 509.166 L 64.500 511.500 224 511.786 C 311.725 511.944, 384.972 511.809, 386.771 511.487 C 390.834 510.760, 396.853 505.596, 398.649 501.298 C 399.758 498.643, 400 476.470, 400 377.324 L 400 256.584 395.500 261 L 391 265.416 391 369.597 C 391 469.124, 390.918 473.880, 389.167 476.042 L 387.334 478.306 239.418 478.082 C 106.031 477.881, 91.330 477.704, 89.751 476.275 C 88.094 474.776, 88 464.230, 88 280.845 C 88 87.553, 88.006 86.994, 90.024 84.976 C 91.993 83.007, 93.048 82.959, 128.047 83.226 L 164.046 83.500 163.773 66.500 L 163.500 49.500 116 49.267 C 71.594 49.049, 68.239 49.154, 64.500 50.885 M 315 66 L 315 83 350.545 83 L 386.091 83 388.545 85.455 L 391 87.909 391 128.663 L 391 169.416 395.500 165 L 400 160.584 399.978 112.042 C 399.958 66.866, 399.827 63.216, 398.095 59.401 C 396.244 55.326, 393.049 52.497, 387.703 50.201 C 385.703 49.343, 374.940 49, 349.953 49 L 315 49 315 66 M 251 332 C 251 351.667, 251.127 353.127, 253 355 C 254.877 356.877, 256.333 357, 276.742 357 L 298.484 357 275.500 334 C 262.859 321.350, 252.175 311, 251.758 311 C 251.341 311, 251 320.450, 251 332" stroke="none" fill="#ffbe7c" fill-rule="evenodd"/><path d="M 150.250 193.735 C 152.863 193.941, 157.137 193.941, 159.750 193.735 C 162.363 193.529, 160.225 193.360, 155 193.360 C 149.775 193.360, 147.637 193.529, 150.250 193.735 M 217.310 193.748 C 224.905 193.918, 237.055 193.918, 244.310 193.747 C 251.564 193.576, 245.350 193.437, 230.500 193.438 C 215.650 193.438, 209.714 193.578, 217.310 193.748 M 297.199 193.744 C 301.984 193.927, 310.084 193.928, 315.199 193.746 C 320.315 193.564, 316.400 193.414, 306.500 193.413 C 296.600 193.412, 292.415 193.561, 297.199 193.744 M 334.505 262.995 L 269.515 327.991 274.763 333.239 L 280.011 338.487 345.236 273.262 L 410.461 208.037 405.518 203.018 C 402.800 200.258, 400.332 198, 400.035 198 C 399.737 198, 370.249 227.248, 334.505 262.995 M 146.250 208.745 C 151.062 208.928, 158.937 208.928, 163.750 208.745 C 168.563 208.561, 164.625 208.411, 155 208.411 C 145.375 208.411, 141.438 208.561, 146.250 208.745 M 217.191 208.747 C 224.171 208.918, 235.871 208.919, 243.191 208.748 C 250.511 208.577, 244.800 208.436, 230.500 208.436 C 216.200 208.435, 210.211 208.575, 217.191 208.747 M 297.250 208.745 C 302.063 208.928, 309.938 208.928, 314.750 208.745 C 319.563 208.561, 315.625 208.411, 306 208.411 C 296.375 208.411, 292.438 208.561, 297.250 208.745 M 351.731 280.769 L 286.969 345.537 292.384 350.885 C 295.362 353.827, 298.282 356.068, 298.873 355.867 C 299.463 355.665, 328.891 326.595, 364.269 291.267 L 428.592 227.034 423.017 221.517 C 419.951 218.483, 417.229 216, 416.968 216 C 416.707 216, 387.351 245.146, 351.731 280.769 M 256.462 304.250 L 251.500 309.500 256.750 304.538 C 259.637 301.808, 262 299.446, 262 299.288 C 262 298.541, 261.074 299.372, 256.462 304.250 M 241.250 356.236 C 233.042 364.490, 232 365.940, 232 369.114 C 232 373.577, 234.497 376, 239.098 376 C 242.114 376, 243.708 374.827, 252 366.500 L 261.460 357 257.885 357 C 253.598 357, 251.284 354.776, 250.828 350.217 L 250.500 346.934 241.250 356.236" stroke="none" fill="#54c7f4" fill-rule="evenodd"/><path d="M 200.455 162.455 C 197.511 165.398, 197.312 168.928, 199.910 172.139 C 201.775 174.446, 202.250 174.507, 220.550 174.813 C 241.067 175.157, 244.097 174.594, 245.959 170.098 C 247.334 166.780, 246.024 162.618, 243.114 161.061 C 241.915 160.419, 233.579 160, 222.020 160 C 203.063 160, 202.889 160.020, 200.455 162.455 M 316.602 243.974 L 251.794 309 228.147 309.231 L 204.500 309.461 228 309.750 L 251.500 310.038 260.511 319.011 L 269.522 327.984 334.769 262.731 L 400.017 197.477 390.714 188.213 L 381.411 178.948 316.602 243.974 M 345.214 273.286 L 279.948 338.557 283.501 342.001 L 287.054 345.444 352.268 280.230 L 417.482 215.016 413.981 211.515 L 410.480 208.014 345.214 273.286 M 146.250 260.745 C 151.062 260.928, 158.937 260.928, 163.750 260.745 C 168.563 260.561, 164.625 260.411, 155 260.411 C 145.375 260.411, 141.438 260.561, 146.250 260.745 M 200.073 263.635 C 196.702 267.920, 197.479 272.162, 202.072 274.537 C 204.249 275.663, 209.074 276, 223.027 276 L 241.154 276 244.179 272.975 C 246.604 270.550, 247.076 269.409, 246.559 267.225 C 245.174 261.368, 243.718 261, 221.962 261 L 202.145 261 200.073 263.635 M 345.496 310.250 L 300.500 355.500 345.750 310.504 C 370.637 285.756, 391 265.394, 391 265.254 C 391 264.551, 387.319 268.191, 345.496 310.250 M 146.250 309.745 C 151.062 309.928, 158.937 309.928, 163.750 309.745 C 168.563 309.561, 164.625 309.411, 155 309.411 C 145.375 309.411, 141.438 309.561, 146.250 309.745 M 251.980 366.750 L 242.500 376.500 252.250 367.020 C 261.306 358.215, 262.455 357, 261.730 357 C 261.582 357, 257.194 361.387, 251.980 366.750 M 218.804 361.748 C 202.152 362.047, 202.102 362.055, 200.054 364.659 C 197.700 367.652, 197.550 368.918, 199.138 372.403 C 200.928 376.333, 204.801 377.013, 224.399 376.840 C 234.355 376.752, 240.925 376.492, 239 376.262 C 237.075 376.032, 234.713 375.134, 233.750 374.267 C 231.251 372.015, 231.477 366.186, 234.174 363.314 C 235.370 362.042, 236.158 361.101, 235.924 361.224 C 235.691 361.347, 227.987 361.583, 218.804 361.748" stroke="none" fill="#86dcff" fill-rule="evenodd"/><path d="M 133.174 162.314 C 131.094 164.529, 131 165.479, 131 184.314 C 131 202.667, 131.135 204.135, 133 206 C 134.867 207.867, 136.333 208, 155 208 C 173.667 208, 175.133 207.867, 177 206 C 178.867 204.133, 179 202.667, 179 184 C 179 165.333, 178.867 163.867, 177 162 C 175.135 160.135, 173.667 160, 155.174 160 C 135.744 160, 135.305 160.046, 133.174 162.314 M 146 184.500 L 146 194 155 194 L 164 194 164 184.500 L 164 175 155 175 L 146 175 146 184.500 M 200.573 195.570 C 197.869 198.274, 197.538 201.904, 199.727 204.837 L 201.715 207.500 230.009 207.766 C 262.349 208.070, 263 207.939, 263 201.132 C 263 193.995, 263.023 194, 230.743 194 C 206.088 194, 201.926 194.217, 200.573 195.570 M 284.073 196.635 C 282.933 198.084, 282 200.048, 282 201 C 282 201.952, 282.933 203.916, 284.073 205.365 L 286.145 208 306.418 208 C 324.457 208, 326.864 207.807, 328.267 206.250 C 331.057 203.154, 331.319 199.675, 328.984 196.707 L 326.855 194 306.500 194 L 286.145 194 284.073 196.635 M 133.174 263.314 C 131.094 265.529, 131 266.479, 131 285.314 C 131 303.667, 131.135 305.135, 133 307 C 134.867 308.867, 136.333 309, 155 309 C 173.667 309, 175.133 308.867, 177 307 C 178.867 305.133, 179 303.667, 179 285 C 179 266.333, 178.867 264.867, 177 263 C 175.135 261.135, 173.667 261, 155.174 261 C 135.744 261, 135.305 261.046, 133.174 263.314 M 146 285 L 146 294 155 294 L 164 294 164 285 L 164 276 155 276 L 146 276 146 285 M 201.832 295.504 C 198.124 297.552, 197.153 302.389, 199.751 305.870 L 201.714 308.500 226.625 308.767 L 251.535 309.033 256.983 303.517 C 262.170 298.265, 262.347 297.918, 260.681 296.251 C 259.113 294.681, 256.116 294.476, 231.716 294.265 C 209.292 294.072, 204.030 294.290, 201.832 295.504 M 133 364 C 131.135 365.865, 131 367.333, 131 385.826 C 131 412.009, 128.979 410, 155.314 410 C 173.667 410, 175.135 409.865, 177 408 C 178.867 406.133, 179 404.667, 179 386 C 179 367.333, 178.867 365.867, 177 364 C 175.133 362.133, 173.667 362, 155 362 C 136.333 362, 134.867 362.133, 133 364 M 146 386 L 146 395 155 395 L 164 395 164 386 L 164 377 155 377 L 146 377 146 386 M 202.315 396.007 C 197.626 397.897, 196.679 403.769, 200.455 407.545 L 202.909 410 230.955 410 C 257.667 410, 259.095 409.905, 261 408 C 263.978 405.022, 263.667 399.670, 260.365 397.073 C 257.844 395.090, 256.578 395.003, 231.115 395.063 C 216.477 395.098, 203.517 395.523, 202.315 396.007 M 285.832 396.529 C 281.094 399.102, 281.168 406.414, 285.957 408.977 C 288.544 410.362, 324.518 410.328, 327.114 408.939 C 331.910 406.372, 331.459 398.441, 326.385 396.130 C 322.506 394.362, 289.218 394.690, 285.832 396.529" stroke="none" fill="#405b6c" fill-rule="evenodd"/><path d="M 127.703 83.743 L 162.905 84.025 163.287 90.263 L 163.669 96.500 163.584 90 L 163.500 83.500 128 83.480 L 92.500 83.461 127.703 83.743 M 326.807 83.747 C 333.576 83.921, 344.376 83.920, 350.807 83.746 C 357.238 83.572, 351.700 83.431, 338.500 83.431 C 325.300 83.432, 320.038 83.574, 326.807 83.747 M 203.750 100.750 C 223.138 100.901, 254.863 100.901, 274.250 100.750 C 293.637 100.598, 277.775 100.474, 239 100.474 C 200.225 100.474, 184.363 100.598, 203.750 100.750 M 213.302 159.746 C 218.693 159.926, 227.243 159.925, 232.302 159.744 C 237.361 159.563, 232.950 159.416, 222.500 159.417 C 212.050 159.418, 207.911 159.566, 213.302 159.746 M 243 353.500 C 238.903 357.625, 235.775 361, 236.050 361 C 236.325 361, 239.903 357.625, 244 353.500 C 248.097 349.375, 251.225 346, 250.950 346 C 250.675 346, 247.097 349.375, 243 353.500" stroke="none" fill="#f0f8fa" fill-rule="evenodd"/><path d="M 424.459 109 C 424.459 132.925, 424.589 142.713, 424.749 130.750 C 424.908 118.788, 424.908 99.213, 424.749 87.250 C 424.589 75.288, 424.459 85.075, 424.459 109 M 440.500 167 C 448.185 174.700, 454.698 181, 454.973 181 C 455.248 181, 449.185 174.700, 441.500 167 C 433.815 159.300, 427.302 153, 427.027 153 C 426.752 153, 432.815 159.300, 440.500 167 M 179.411 184 C 179.411 193.625, 179.561 197.563, 179.745 192.750 C 179.928 187.937, 179.928 180.062, 179.745 175.250 C 179.561 170.438, 179.411 174.375, 179.411 184 M 422.500 221 C 425.766 224.300, 428.662 227, 428.937 227 C 429.212 227, 426.766 224.300, 423.500 221 C 420.234 217.700, 417.338 215, 417.063 215 C 416.788 215, 419.234 217.700, 422.500 221 M 411.484 244.250 L 399.500 256.500 411.746 244.519 L 423.993 232.539 424.250 364.019 L 424.507 495.500 424.754 363.750 C 424.889 291.288, 424.655 232, 424.234 232 C 423.813 232, 418.076 237.512, 411.484 244.250 M 179.411 285 C 179.411 294.625, 179.561 298.563, 179.745 293.750 C 179.928 288.938, 179.928 281.063, 179.745 276.250 C 179.561 271.438, 179.411 275.375, 179.411 285 M 146.250 361.745 C 151.062 361.928, 158.937 361.928, 163.750 361.745 C 168.563 361.561, 164.625 361.411, 155 361.411 C 145.375 361.411, 141.438 361.561, 146.250 361.745 M 179.411 386 C 179.411 395.625, 179.561 399.563, 179.745 394.750 C 179.928 389.938, 179.928 382.063, 179.745 377.250 C 179.561 372.438, 179.411 376.375, 179.411 386" stroke="none" fill="#dea66b" fill-rule="evenodd"/></svg>